<svg xmlns="http://www.w3.org/2000/svg" width="48" height="48" viewBox="0 0 48 48"><g transform="translate(0 -1004.362)"><circle cx="24" cy="1028.362" r="24" fill="#1d67b1"/><g transform="translate(343.503 -568.402)"><path fill="#d2dce9" d="m -305.50289,1587.7648 0,-2 c 0,-1.108 -0.892,-2 -2,-2 l 5e-5,0 -20.99288,0 c 0,0 -1.11507,0 -0.007,0 1.108,0 2,0.892 2,2 l 0,2 0.007,0 20.99288,0 z"/><path fill="#f0f4f7" d="m -328.50195,563.40234 c -1.108,0 -2,0.892 -2,2 l 0,4 0,16 c 0,1.108 -0.892,2 -2,2 l 13.6914,0 4.75586,0 c 0,0 1.44474,0 2.55274,0 1.108,0 2,-0.892 2,-2 l 0,-16 0,-2 -17,0 0,-2 c 0,-1.108 -0.892,-2 -2,-2 z" transform="translate(0 1020.362)"/><path fill="#ee7581" d="m -314.50286,1602.6328 0,8.3268 -1.93109,-1.212 -2.07024,1.212 0,-8.0616" color="#000" overflow="visible" style="isolation:auto;mix-blend-mode:normal"/><path fill="none" stroke="#d15d6a" stroke-linecap="round" stroke-linejoin="round" d="m -316.50284,1605.2448 0,2.52"/><path fill="#0c5286" d="m 23.076457,1044.4386 c -0.135138,0.1352 -1.302674,-0.02 -1.468184,0.075 -0.165509,0.096 -0.614586,1.1844 -0.799188,1.2339 -0.184602,0.05 -1.117954,-0.669 -1.309068,-0.669 -0.191113,0 -1.124466,0.7185 -1.309068,0.669 -0.184601,-0.049 -0.633678,-1.1384 -0.799188,-1.2339 -0.165509,-0.096 -1.333046,0.06 -1.468183,-0.075 -0.135138,-0.1351 0.02039,-1.3027 -0.07517,-1.4682 -0.09556,-0.1655 -1.184437,-0.6145 -1.233901,-0.7991 -0.04946,-0.1847 0.668995,-1.118 0.668995,-1.3091 0,-0.1911 -0.718459,-1.1245 -0.668995,-1.3091 0.04946,-0.1846 1.138343,-0.6337 1.2339,-0.7992 0.09556,-0.1655 -0.05997,-1.333 0.07517,-1.4682 0.135137,-0.1351 1.302673,0.02 1.468183,-0.075 0.165509,-0.096 0.614587,-1.1845 0.799188,-1.2339 0.184602,-0.049 1.117954,0.669 1.309068,0.669 0.191114,0 1.124466,-0.7185 1.309068,-0.669 0.184602,0.049 0.633679,1.1383 0.799188,1.2339 0.16551,0.095 1.333046,-0.06 1.468184,0.075 0.135138,0.1352 -0.02039,1.3027 0.07517,1.4682 0.09556,0.1655 1.184437,0.6146 1.233901,0.7992 0.04946,0.1846 -0.668996,1.118 -0.668996,1.3091 0,0.1911 0.718459,1.1244 0.668996,1.3091 -0.04946,0.1846 -1.138344,0.6336 -1.233901,0.7991 -0.09556,0.1655 0.05997,1.3331 -0.07517,1.4682 z" transform="matrix(1.02007 -.0058 .0058 1.02007 -342.432 539.128)"/><circle cx="-316.503" cy="1600.765" r="3" fill="#406b95"/><path fill="#f9b536" d="m -110,1250.3622 c -0.49954,0.4163 -4.06363,-1.7203 -4.71246,-1.6772 -0.64882,0.043 -3.89851,2.633 -4.44879,2.2866 -0.55028,-0.3465 0.38039,-4.3964 0.13885,-5.0001 -0.24155,-0.6038 -3.70885,-2.8941 -3.5494,-3.5245 0.15946,-0.6304 4.29873,-0.9968 4.79828,-1.413 0.49954,-0.4163 1.60632,-4.4217 2.25515,-4.4648 0.64882,-0.043 2.27636,3.7803 2.82664,4.1267 0.55028,0.3465 4.70161,0.1614 4.94315,0.7651 0.24155,0.6037 -2.89185,3.3331 -3.05131,3.9635 -0.15945,0.6304 1.29943,4.5214 0.79989,4.9377 z" color="#000" overflow="visible" transform="matrix(.26071 .01592 -.01573 .26396 -266.949 1274.377)" style="isolation:auto;mix-blend-mode:normal"/><path fill="none" stroke="#8fb6d7" stroke-linecap="round" stroke-linejoin="round" d="M-328.00284 1590.7648l16 0M-328.00284 1593.7648l16 0M-328.00284 1596.7648l6 0M-328.00284 1599.7648l5 0"/><path fill="none" stroke="#2dbca4" stroke-linecap="round" stroke-linejoin="round" d="m -328.00284,1604.7648 6,0"/><path fill="#d2dce9" d="m -330.50279,1603.7652 0,1.9997 c 0,1.108 -0.892,2 -2,2 -1.108,0 -2,-0.892 -2,-2 l 0,-1.9997"/></g></g></svg>