<svg xmlns="http://www.w3.org/2000/svg" version="1.1" xmlns:xlink="http://www.w3.org/1999/xlink" xmlns:svgjs="http://svgjs.com/svgjs" width="1440" height="560" preserveAspectRatio="none" viewBox="0 0 1440 560"><g mask="url(&quot;#SvgjsMask1009&quot;)" fill="none"><path d="M698.17 422.84 a1.88 1.88 0 1 0 3.76 0 a1.88 1.88 0 1 0 -3.76 0z" stroke="#037b0b"></path><path d="M878 391.6L933.94 391.6L933.94 394.64L878 394.64z" stroke="#d3b714"></path><path d="M502.85 515.02a55.07 55.07 0 1 0-64.42 89.33z" fill="#037b0b"></path><path d="M661.36 171.05 a24.72 24.72 0 1 0 49.44 0 a24.72 24.72 0 1 0 -49.44 0z" stroke="#e73635"></path><path d="M79.31 495.48a34.45 34.45 0 1 0 21.28 65.53z" stroke="#d3b714"></path><path d="M1357.09 363.72 a25.42 25.42 0 1 0 50.84 0 a25.42 25.42 0 1 0 -50.84 0z" fill="rgba(30, 132, 216, 1)"></path><path d="M227.84 104.11L264.04 104.11L264.04 140.31L227.84 140.31z" fill="#037b0b"></path><path d="M502.67 458.46a27.88 27.88 0 1 0 26.91-48.84z" fill="#037b0b"></path><path d="M580.16 488.72 a8.38 8.38 0 1 0 16.76 0 a8.38 8.38 0 1 0 -16.76 0z" stroke="#d3b714"></path><path d="M1385.87 166.62a23.63 23.63 0 1 0-43.7 17.99z" fill="#e73635"></path><path d="M841.41 63.65L867.5 63.65L867.5 84.33L841.41 84.33z" stroke="#d3b714"></path><path d="M856.8 14.28L903.07 14.28L903.07 60.55L856.8 60.55z" fill="rgba(30, 132, 216, 1)"></path><path d="M297.95 284.15a23.69 23.69 0 1 0-8.17-46.68z" stroke="#d3b714"></path><path d="M216.78 360.8L256.22 360.8L256.22 395.46L216.78 395.46z" stroke="rgba(30, 132, 216, 1)"></path><path d="M586.92 43.82 a37.32 37.32 0 1 0 74.64 0 a37.32 37.32 0 1 0 -74.64 0z" fill="rgba(30, 132, 216, 1)"></path><path d="M503.46 345.68a29.24 29.24 0 1 0 53.3-24.06z" fill="rgba(30, 132, 216, 1)"></path><path d="M487.81 207.72L497.19 207.72L497.19 226.42L487.81 226.42z" fill="#037b0b"></path><path d="M441.04 530.78L446.47 530.78L446.47 538.83L441.04 538.83z" stroke="#037b0b"></path><path d="M1281.9 433.67L1332.07 433.67L1332.07 483.45L1281.9 483.45z" stroke="#d3b714"></path><path d="M4.38 374.31 a33.52 33.52 0 1 0 67.04 0 a33.52 33.52 0 1 0 -67.04 0z" stroke="#037b0b"></path><path d="M997.31 222.97L1016.8 222.97L1016.8 238.24L997.31 238.24z" stroke="#e73635"></path><path d="M928.58 356.6L947.85 356.6L947.85 366.37L928.58 366.37z" stroke="#e73635"></path><path d="M884.5 331.9 a42.31 42.31 0 1 0 84.62 0 a42.31 42.31 0 1 0 -84.62 0z" fill="#e73635"></path><path d="M275.04 364.72L275.76 364.72L275.76 389.21L275.04 389.21z" stroke="#d3b714"></path><path d="M1323.34 255.05L1378.24 255.05L1378.24 309.95L1323.34 309.95z" fill="rgba(30, 132, 216, 1)"></path><path d="M809.53 412.59L822.52 412.59L822.52 425.58L809.53 425.58z" fill="#037b0b"></path><path d="M1287.99 21.35 a46.47 46.47 0 1 0 92.94 0 a46.47 46.47 0 1 0 -92.94 0z" fill="#e73635"></path><path d="M1130.97 229.97L1136.37 229.97L1136.37 276.9L1130.97 276.9z" fill="rgba(30, 132, 216, 1)"></path><path d="M368.39 540.05 a46.31 46.31 0 1 0 92.62 0 a46.31 46.31 0 1 0 -92.62 0z" fill="#e73635"></path><path d="M84.04 584.92a51.48 51.48 0 1 0 79.31-65.65z" stroke="#e73635"></path><path d="M469.81 482.47L515.95 482.47L515.95 521.74L469.81 521.74z" fill="#d3b714"></path><path d="M1169.91 212.59a6.82 6.82 0 1 0-1.54-13.55z" fill="#e73635"></path><path d="M1403.32 554.34L1458.45 554.34L1458.45 603.69L1403.32 603.69z" fill="#d3b714"></path></g><defs><mask id="SvgjsMask1009"><rect width="1440" height="560" fill="#ffffff"></rect></mask></defs></svg>