<svg xmlns="http://www.w3.org/2000/svg" enable-background="new 0 0 24 24" viewBox="0 0 24 24"><g display="none"><line x1="3.5" x2="21.5" y1="15.5" y2="15.5" fill="none" stroke="#000" stroke-linecap="round" stroke-linejoin="round" stroke-miterlimit="10"/><line x1="5.5" x2="19.5" y1="9.5" y2="9.5" fill="none" stroke="#000" stroke-linecap="round" stroke-linejoin="round" stroke-miterlimit="10"/><polyline fill="none" stroke="#000" stroke-linecap="round" stroke-linejoin="round" stroke-miterlimit="10" points="10.5 15.5 10.5 23.5 8 21.5 5.5 23.5 5.5 15.5"/><circle cx="7.5" cy="3.5" r="3" fill="none" stroke="#000" stroke-linecap="round" stroke-linejoin="round" stroke-miterlimit="10"/><path fill="none" stroke="#000" stroke-linecap="round" stroke-linejoin="round" stroke-miterlimit="10" d="M6.5,3.5c0-0.6,0.4-1,1-1"/><circle cx="16.5" cy="3.5" r="3" fill="none" stroke="#000" stroke-linecap="round" stroke-linejoin="round" stroke-miterlimit="10"/><path fill="none" stroke="#000" stroke-linecap="round" stroke-linejoin="round" stroke-miterlimit="10" d="M10.5 18.5h13l-2-3 2-3h-21c-1.1 0-2 .9-2 2v2c0 1.1.9 2 2 2h3M21.5 12.5l-2-3 2-3h-17c-1.1 0-2 .9-2 2v2c0 1.1.9 2 2 2"/><polyline fill="none" stroke="#000" stroke-linecap="round" stroke-linejoin="round" stroke-miterlimit="10" points="10.5 3.6 12 4.5 13.5 3.6"/><circle cx="7.5" cy="4.5" r=".5"/></g><g display="none"><path d="M7.5,2C6.7,2,6,2.7,6,3.5C6,3.8,6.2,4,6.5,4S7,3.8,7,3.5C7,3.2,7.2,3,7.5,3C7.8,3,8,2.8,8,2.5S7.8,2,7.5,2z"/><path d="M22.1,15.5l1.8-2.7c0.1-0.2,0.1-0.4,0-0.5S23.7,12,23.5,12h-1.7l-1.7-2.5l1.8-2.7c0.1-0.2,0.1-0.4,0-0.5S21.7,6,21.5,6h-2.6C19.6,5.4,20,4.5,20,3.5C20,1.6,18.4,0,16.5,0c-1.9,0-3.4,1.5-3.5,3.3l-1,0.6l-1-0.6C10.9,1.5,9.4,0,7.5,0C5.6,0,4,1.6,4,3.5c0,1,0.4,1.9,1.1,2.5H4.5C3.1,6,2,7.1,2,8.5v2c0,0.6,0.2,1.1,0.5,1.5h0C1.1,12,0,13.1,0,14.5v2C0,17.9,1.1,19,2.5,19H5v4.5c0,0.2,0.1,0.4,0.3,0.5C5.5,24,5.7,24,5.8,23.9L8,22.1l2.2,1.8c0.1,0.1,0.2,0.1,0.3,0.1c0.1,0,0.1,0,0.2,0c0.2-0.1,0.3-0.3,0.3-0.5V19h12.5c0.2,0,0.4-0.1,0.4-0.3s0.1-0.4,0-0.5L22.1,15.5z M16.5,1C17.9,1,19,2.1,19,3.5S17.9,6,16.5,6S14,4.9,14,3.5S15.1,1,16.5,1z M12,5c0.1,0,0.2,0,0.3-0.1l0.9-0.5C13.3,5,13.6,5.6,14.1,6H9.9c0.4-0.4,0.8-1,0.9-1.6l0.9,0.5C11.8,5,11.9,5,12,5z M5,3.5C5,2.1,6.1,1,7.5,1S10,2.1,10,3.5S8.9,6,7.5,6S5,4.9,5,3.5z M3,10.5v-2C3,7.7,3.7,7,4.5,7h16.1l-1.3,2H5.5C5.2,9,5,9.2,5,9.5S5.2,10,5.5,10h13.7l1.3,2H4.5C3.7,12,3,11.3,3,10.5z M2.5,18C1.7,18,1,17.3,1,16.5v-2C1,13.7,1.7,13,2.5,13h20.1l-1.3,2H3.5C3.2,15,3,15.2,3,15.5S3.2,16,3.5,16H5v2H2.5z M8.3,21.1c-0.2-0.1-0.4-0.1-0.6,0L6,22.5V16h4v6.5L8.3,21.1z M11,18v-2h10.2l1.3,2H11z"/><circle cx="7.5" cy="4.5" r=".5"/></g><path fill="#3e5959" d="M21.5 16h-18C3.2 16 3 15.8 3 15.5S3.2 15 3.5 15h18V16zM19.5 10h-14C5.2 10 5 9.8 5 9.5S5.2 9 5.5 9h14V10zM6.5 4C6.2 4 6 3.8 6 3.5 6 2.7 6.7 2 7.5 2 7.8 2 8 2.2 8 2.5S7.8 3 7.5 3C7.2 3 7 3.2 7 3.5 7 3.8 6.8 4 6.5 4zM12 5c-.1 0-.2 0-.3-.1L10.2 4l.5-.9L12 3.9l1.3-.7L13.8 4l-1.5.9C12.2 5 12.1 5 12 5z"/><circle cx="7.5" cy="4.5" r=".5" fill="#3e5959"/><path fill="#1689fc" d="M22.1,15.5l1.8-2.7c0.1-0.2,0.1-0.4,0-0.5S23.7,12,23.5,12h-1.7l-1.7-2.5l1.8-2.7c0.1-0.2,0.1-0.4,0-0.5S21.7,6,21.5,6h-2.6C19.6,5.4,20,4.5,20,3.5C20,1.6,18.4,0,16.5,0S13,1.6,13,3.5c0,1,0.4,1.9,1.1,2.5H9.9C10.6,5.4,11,4.5,11,3.5C11,1.6,9.4,0,7.5,0S4,1.6,4,3.5c0,1,0.4,1.9,1.1,2.5H4.5C3.1,6,2,7.1,2,8.5v2c0,0.6,0.2,1.1,0.5,1.5h0C1.1,12,0,13.1,0,14.5v2C0,17.9,1.1,19,2.5,19H5v4.5c0,0.2,0.1,0.4,0.3,0.5C5.5,24,5.7,24,5.8,23.9L8,22.1l2.2,1.8c0.1,0.1,0.2,0.1,0.3,0.1c0.1,0,0.1,0,0.2,0c0.2-0.1,0.3-0.3,0.3-0.5V19h12.5c0.2,0,0.4-0.1,0.4-0.3c0.1-0.2,0.1-0.4,0-0.5L22.1,15.5z M14,3.5C14,2.1,15.1,1,16.5,1S19,2.1,19,3.5S17.9,6,16.5,6S14,4.9,14,3.5z M5,3.5C5,2.1,6.1,1,7.5,1S10,2.1,10,3.5S8.9,6,7.5,6S5,4.9,5,3.5z M3,8.5C3,7.7,3.7,7,4.5,7h16.1l-1.5,2.2c-0.1,0.2-0.1,0.4,0,0.6l1.5,2.2H4.5C3.7,12,3,11.3,3,10.5V8.5z M11,18v-2h-1v6.5l-1.7-1.4c-0.2-0.1-0.4-0.1-0.6,0L6,22.5V16H5v2H2.5C1.7,18,1,17.3,1,16.5v-2C1,13.7,1.7,13,2.5,13h20.1l-1.5,2.2c-0.1,0.2-0.1,0.4,0,0.6l1.5,2.2H11z"/><g display="none"><path fill="#32d736" d="M23.5,18.5h-21c-1.1,0-2-0.9-2-2v-2c0-1.1,0.9-2,2-2h21l-2,3L23.5,18.5z"/><path fill="#1689fc" d="M21.5,12.5h-17c-1.1,0-2-0.9-2-2v-2c0-1.1,0.9-2,2-2h17l-2,3L21.5,12.5z"/><polygon fill="#fcbf29" points="10.5 23.5 8 21.5 5.5 23.5 5.5 15.5 10.5 15.5"/><circle cx="7.5" cy="3.5" r="3" fill="#b7e0f6"/><circle cx="16.5" cy="3.5" r="3" fill="#b7e0f6"/><path fill="#81c8ee" d="M17,0.6c0.6,0.8,1,1.8,1,2.9s-0.4,2.1-1,2.9c1.4-0.2,2.5-1.5,2.5-2.9S18.4,0.8,17,0.6z"/><path fill="#fea832" d="M9,17v3.4c0,0.5-0.4,0.9-0.9,1l-0.6,0.1l3,2v-8h-3h0C8.3,15.5,9,16.2,9,17z"/><polygon fill="#10bb67" points="23.5 12.5 21.5 12.5 19.5 15.5 21.5 18.5 23.5 18.5 21.5 15.5"/><polygon fill="#1e7af4" points="21.5 6.5 19.5 6.5 17.5 9.5 19.5 12.5 21.5 12.5 19.5 9.5"/><path fill="#cae8f9" d="M7.5,2C6.7,2,6,2.7,6,3.5C6,3.8,6.2,4,6.5,4S7,3.8,7,3.5C7,3.2,7.2,3,7.5,3C7.8,3,8,2.8,8,2.5S7.8,2,7.5,2z"/><path fill="#384949" d="M22.1,15.5l1.8-2.7c0.1-0.2,0.1-0.4,0-0.5S23.7,12,23.5,12h-1.7l-1.7-2.5l1.8-2.7c0.1-0.2,0.1-0.4,0-0.5S21.7,6,21.5,6h-2.6C19.6,5.4,20,4.5,20,3.5C20,1.6,18.4,0,16.5,0c-1.9,0-3.4,1.5-3.5,3.3l-1,0.6l-1-0.6C10.9,1.5,9.4,0,7.5,0C5.6,0,4,1.6,4,3.5c0,1,0.4,1.9,1.1,2.5H4.5C3.1,6,2,7.1,2,8.5v2c0,0.6,0.2,1.1,0.5,1.5h0C1.1,12,0,13.1,0,14.5v2C0,17.9,1.1,19,2.5,19H5v4.5c0,0.2,0.1,0.4,0.3,0.5C5.5,24,5.7,24,5.8,23.9L8,22.1l2.2,1.8c0.1,0.1,0.2,0.1,0.3,0.1c0.1,0,0.1,0,0.2,0c0.2-0.1,0.3-0.3,0.3-0.5V19h12.5c0.2,0,0.4-0.1,0.4-0.3s0.1-0.4,0-0.5L22.1,15.5z M16.5,1C17.9,1,19,2.1,19,3.5S17.9,6,16.5,6S14,4.9,14,3.5S15.1,1,16.5,1z M12,5c0.1,0,0.2,0,0.3-0.1l0.9-0.5C13.3,5,13.6,5.6,14.1,6H9.9c0.4-0.4,0.8-1,0.9-1.6l0.9,0.5C11.8,5,11.9,5,12,5z M5,3.5C5,2.1,6.1,1,7.5,1S10,2.1,10,3.5S8.9,6,7.5,6S5,4.9,5,3.5z M3,10.5v-2C3,7.7,3.7,7,4.5,7h16.1l-1.3,2H5.5C5.2,9,5,9.2,5,9.5S5.2,10,5.5,10h13.7l1.3,2H4.5C3.7,12,3,11.3,3,10.5z M2.5,18C1.7,18,1,17.3,1,16.5v-2C1,13.7,1.7,13,2.5,13h20.1l-1.3,2H3.5C3.2,15,3,15.2,3,15.5S3.2,16,3.5,16H5v2H2.5z M8.3,21.1c-0.2-0.1-0.4-0.1-0.6,0L6,22.5V16h4v6.5L8.3,21.1z M11,18v-2h10.2l1.3,2H11z"/><circle cx="7.5" cy="4.5" r=".5" fill="#cae8f9"/></g><g display="none"><circle cx="16.5" cy="3.5" r="3" fill="#00ecce"/><circle cx="7.5" cy="3.5" r="3" fill="#00ecce"/><polygon fill="#00ecce" points="10.5 23.5 8 21.5 5.5 23.5 5.5 15.5 10.5 15.5"/><path fill="#01a28e" d="M7.5,2C6.7,2,6,2.7,6,3.5C6,3.8,6.2,4,6.5,4S7,3.8,7,3.5C7,3.2,7.2,3,7.5,3C7.8,3,8,2.8,8,2.5S7.8,2,7.5,2z"/><path fill="#01a28e" d="M22.1,15.5l1.8-2.7c0.1-0.2,0.1-0.4,0-0.5S23.7,12,23.5,12h-1.7l-1.7-2.5l1.8-2.7c0.1-0.2,0.1-0.4,0-0.5S21.7,6,21.5,6h-2.6C19.6,5.4,20,4.5,20,3.5C20,1.6,18.4,0,16.5,0c-1.9,0-3.4,1.5-3.5,3.3l-1,0.6l-1-0.6C10.9,1.5,9.4,0,7.5,0C5.6,0,4,1.6,4,3.5c0,1,0.4,1.9,1.1,2.5H4.5C3.1,6,2,7.1,2,8.5v2c0,0.6,0.2,1.1,0.5,1.5h0C1.1,12,0,13.1,0,14.5v2C0,17.9,1.1,19,2.5,19H5v4.5c0,0.2,0.1,0.4,0.3,0.5C5.5,24,5.7,24,5.8,23.9L8,22.1l2.2,1.8c0.1,0.1,0.2,0.1,0.3,0.1c0.1,0,0.1,0,0.2,0c0.2-0.1,0.3-0.3,0.3-0.5V19h12.5c0.2,0,0.4-0.1,0.4-0.3s0.1-0.4,0-0.5L22.1,15.5z M16.5,1C17.9,1,19,2.1,19,3.5S17.9,6,16.5,6S14,4.9,14,3.5S15.1,1,16.5,1z M12,5c0.1,0,0.2,0,0.3-0.1l0.9-0.5C13.3,5,13.6,5.6,14.1,6H9.9c0.4-0.4,0.8-1,0.9-1.6l0.9,0.5C11.8,5,11.9,5,12,5z M5,3.5C5,2.1,6.1,1,7.5,1S10,2.1,10,3.5S8.9,6,7.5,6S5,4.9,5,3.5z M3,10.5v-2C3,7.7,3.7,7,4.5,7h16.1l-1.3,2H5.5C5.2,9,5,9.2,5,9.5S5.2,10,5.5,10h13.7l1.3,2H4.5C3.7,12,3,11.3,3,10.5z M2.5,18C1.7,18,1,17.3,1,16.5v-2C1,13.7,1.7,13,2.5,13h20.1l-1.3,2H3.5C3.2,15,3,15.2,3,15.5S3.2,16,3.5,16H5v2H2.5z M8.3,21.1c-0.2-0.1-0.4-0.1-0.6,0L6,22.5V16h4v6.5L8.3,21.1z M11,18v-2h10.2l1.3,2H11z"/><circle cx="7.5" cy="4.5" r=".5" fill="#01a28e"/></g><g display="none"><path fill="#606060" d="M12,3.9l-1.3-0.7c-0.2-0.1-0.5-0.1-0.7,0.2C9.9,3.6,10,3.9,10.2,4l1.5,0.9C11.8,5,11.9,5,12,5V3.9z"/><path fill="#3c3a41" d="M13.9,3.3c-0.1-0.2-0.4-0.3-0.7-0.2L12,3.9V5c0.1,0,0.2,0,0.3-0.1L13.8,4C14,3.9,14.1,3.6,13.9,3.3z"/><circle cx="7.5" cy="3.5" r="3" fill="#cae8f9"/><path fill="#b7e0f6" d="M6.5,4C6.2,4,6,3.8,6,3.5C6,2.7,6.7,2,7.5,2C7.8,2,8,2.2,8,2.5S7.8,3,7.5,3C7.2,3,7,3.2,7,3.5C7,3.8,6.8,4,6.5,4z"/><circle cx="16.5" cy="3.5" r="3" fill="#b7e0f6"/><circle cx="7.5" cy="4.5" r=".5" fill="#b7e0f6"/><path fill="#787780" d="M7.5,7C5.6,7,4,5.4,4,3.5S5.6,0,7.5,0S11,1.6,11,3.5S9.4,7,7.5,7z M7.5,1C6.1,1,5,2.1,5,3.5S6.1,6,7.5,6S10,4.9,10,3.5S8.9,1,7.5,1z"/><path fill="#57555c" d="M16.5,7C14.6,7,13,5.4,13,3.5S14.6,0,16.5,0S20,1.6,20,3.5S18.4,7,16.5,7z M16.5,1C15.1,1,14,2.1,14,3.5S15.1,6,16.5,6S19,4.9,19,3.5S17.9,1,16.5,1z"/><path fill="#18a7fc" d="M12,7H4.5C3.1,7,2,8.1,2,9.5v1C2,11.9,3.1,13,4.5,13H12V7z"/><path fill="#32d736" d="M12,13H2.5C1.1,13,0,14.1,0,15.5v2C0,18.9,1.1,20,2.5,20H12V13z"/><path fill="#787780" d="M12,9.5H5.5C5.2,9.5,5,9.7,5,10c0,0.3,0.2,0.5,0.5,0.5H12V9.5z"/><path fill="#1689fc" d="M20.1,10l1.8-2.2c0.1-0.2,0.1-0.3,0-0.5C21.8,7.1,21.7,7,21.5,7H12v6h9.5c0.2,0,0.3-0.1,0.4-0.3c0.1-0.2,0.1-0.4,0-0.5L20.1,10z"/><path fill="#10bb67" d="M22.1,16.5l1.8-2.7c0.1-0.2,0.1-0.4,0-0.5S23.7,13,23.5,13H12v7h11.5c0.2,0,0.4-0.1,0.4-0.3c0.1-0.2,0.1-0.4,0-0.5L22.1,16.5z"/><polygon fill="#57555c" points="22.4 16 12 16 12 17 22.4 17 22.1 16.5"/><polygon fill="#57555c" points="20.4 9.5 12 9.5 12 10.5 20.4 10.5 20.1 10"/><path fill="#fedb41" d="M10.5,24c-0.1,0-0.2,0-0.3-0.1L8,22.1l-2.2,1.8C5.7,24,5.5,24,5.3,24C5.1,23.9,5,23.7,5,23.5v-7h6v7c0,0.2-0.1,0.4-0.3,0.5C10.6,24,10.6,24,10.5,24z"/><path fill="#787780" d="M12,16H3.5C3.2,16,3,16.2,3,16.5C3,16.8,3.2,17,3.5,17H12V16z"/></g></svg>