<svg xmlns="http://www.w3.org/2000/svg" enable-background="new 0 0 64 64" viewBox="0 0 64 64"><path fill="#e0e0de" d="M0.04,6.49v21.77c0,2.06,1.67,3.74,3.74,3.74h8.71V6.22c0-1.72-0.7-3.27-1.82-4.4C9.57,0.73,8.08,0.04,6.42,0
		C2.91-0.09,0.04,2.98,0.04,6.49z"/><path fill="#f2f2f0" d="M6.26,0c1.72,0,3.27,0.7,4.4,1.82c1.13,1.13,1.82,2.68,1.82,4.4v54.04c0,2.06,1.67,3.74,3.74,3.74h44.01
		c2.06,0,3.74-1.67,3.74-3.74V3.74c0-2.06-1.67-3.74-3.74-3.74H6.26z"/><rect width="39.19" height="13.08" x="18.63" y="5.99" fill="#ef736a" transform="rotate(-180 38.222 12.53)"/><rect width="17" height="2.49" x="18.63" y="22.15" fill="#e0e0de" transform="rotate(-180 27.13 23.389)"/><rect width="17" height="2.49" x="18.63" y="27.71" fill="#e0e0de" transform="rotate(-180 27.13 28.952)"/><rect width="17" height="2.49" x="18.63" y="33.27" fill="#e0e0de" transform="rotate(-180 27.13 34.515)"/><rect width="17" height="13.61" x="18.63" y="38.84" fill="#e0e0de"/><rect width="17" height="2.49" x="18.63" y="55.53" fill="#e0e0de" transform="rotate(-180 27.13 56.768)"/><rect width="17" height="13.61" x="40.81" y="22.15" fill="#e0e0de"/><rect width="17" height="2.49" x="40.81" y="38.84" fill="#e0e0de" transform="rotate(-180 49.313 40.078)"/><rect width="17" height="2.49" x="40.81" y="44.4" fill="#e0e0de" transform="rotate(-180 49.313 45.642)"/><rect width="17" height="2.49" x="40.81" y="49.96" fill="#e0e0de" transform="rotate(-180 49.313 51.205)"/><rect width="17" height="2.49" x="40.81" y="55.53" fill="#e0e0de" transform="rotate(-180 49.313 56.768)"/><g><path fill="#f2f2f0" d="M31.28 14.46c0 .39-.04.75-.11 1.07-.07.32-.2.59-.38.81-.18.22-.41.39-.7.51-.29.12-.64.17-1.06.17-.13 0-.27-.01-.4-.03-.13-.02-.25-.05-.36-.08-.11-.03-.21-.06-.29-.1-.08-.04-.13-.07-.16-.1-.03-.03-.05-.06-.07-.09-.02-.03-.03-.07-.05-.12-.01-.05-.02-.12-.03-.19 0-.08-.01-.17-.01-.29 0-.15 0-.28.01-.39.01-.11.02-.19.03-.25.02-.06.04-.1.07-.13.03-.02.07-.04.11-.04.04 0 .09.01.14.04.05.03.11.06.18.09.07.03.15.06.24.09.09.03.2.04.32.04.12 0 .23-.02.32-.05.09-.03.17-.09.23-.17.06-.08.11-.19.14-.33.03-.14.05-.32.05-.54V8.41c0-.04.01-.08.04-.12.03-.03.08-.06.14-.08.07-.02.16-.04.27-.05.12-.01.26-.02.43-.02.17 0 .31.01.42.02.11.01.2.03.27.05.07.02.12.05.15.08.03.03.04.07.04.12V14.46zM40.99 12.43c0 .72-.09 1.37-.27 1.94-.18.57-.45 1.05-.8 1.45-.35.4-.79.7-1.31.91-.52.21-1.13.31-1.81.31-.68 0-1.27-.09-1.77-.27-.5-.18-.92-.45-1.26-.81-.34-.36-.59-.82-.76-1.39-.17-.56-.25-1.22-.25-1.99 0-.7.09-1.34.27-1.9.18-.56.45-1.04.8-1.44.35-.39.79-.7 1.31-.91.52-.21 1.13-.32 1.82-.32.66 0 1.24.09 1.75.26.5.17.93.44 1.26.81.34.36.59.82.77 1.38C40.9 11.02 40.99 11.68 40.99 12.43zM39.13 12.52c0-.46-.04-.87-.11-1.25-.07-.37-.19-.69-.37-.96-.17-.27-.4-.47-.69-.62-.29-.15-.65-.22-1.08-.22-.43 0-.8.08-1.09.25-.29.16-.53.38-.71.66-.18.27-.31.59-.38.96-.07.37-.11.75-.11 1.16 0 .48.04.9.11 1.28.07.38.19.7.36.97.17.27.4.47.69.62.29.14.65.21 1.08.21.43 0 .8-.08 1.09-.24.29-.16.53-.38.71-.66.18-.28.31-.6.38-.97C39.09 13.33 39.13 12.94 39.13 12.52zM48.77 14.27c0 .31-.04.59-.13.84-.09.25-.2.47-.35.67-.15.19-.33.36-.54.5-.21.14-.44.25-.69.34-.25.09-.52.16-.8.2-.28.04-.6.06-.95.06H43c-.15 0-.27-.04-.37-.13-.1-.09-.15-.23-.15-.43V8.74c0-.2.05-.34.15-.43.1-.09.23-.13.37-.13h2.19c.53 0 .99.04 1.35.13.37.09.68.23.93.41.25.18.45.41.58.69.13.28.2.61.2.98 0 .21-.03.41-.08.6-.05.19-.13.36-.24.51-.1.15-.23.29-.38.4-.15.12-.32.21-.51.28.25.04.47.12.68.24.21.11.39.26.54.43.15.18.28.38.37.62C48.73 13.71 48.77 13.98 48.77 14.27zM46.49 10.61c0-.17-.03-.33-.08-.47-.05-.14-.13-.25-.24-.35-.11-.09-.24-.16-.41-.21C45.59 9.53 45.37 9.5 45.1 9.5h-.89v2.26h.99c.26 0 .46-.03.61-.09.15-.06.28-.14.38-.25.1-.11.18-.23.23-.37C46.46 10.91 46.49 10.76 46.49 10.61zM46.94 14.33c0-.2-.03-.38-.1-.54-.07-.16-.17-.29-.3-.4-.13-.11-.3-.19-.5-.25-.2-.06-.46-.09-.79-.09h-1.05v2.47h1.28c.25 0 .45-.03.62-.08.17-.05.31-.13.44-.23.12-.1.22-.23.29-.38C46.9 14.7 46.94 14.52 46.94 14.33z"/></g><g><rect width="2.76" height="1.98" x="47.93" y="28.06" fill="#efcf8f" transform="rotate(-180 49.312 29.052)"/><path fill="#ffe09c" d="M47.37,27.51c0.33,1.05,1.05,1.85,1.92,1.85c0.87,0,1.62-0.82,1.95-1.88c0.43-0.3,0.53-1.41,0.17-1.4
							c-0.08-1.54-1-2.75-2.12-2.75c-1.12,0-1.94,1.21-2.03,2.75C46.86,25.94,46.9,27.23,47.37,27.51z"/><path fill="#3a556d" d="M47.55,26.88h-0.12c-0.21-0.77-0.34-1.65-0.27-2.36c0.17-1.11,0.97-1.65,2-1.56
						c0.65,0.06,1.1,0.27,1.31,0.64c0.52-0.32,0.89-0.15,1.05,0.76c0.12,0.86,0,1.75-0.18,2.54l-0.15-0.01
						c0.28-1.9-2.07-2.84-3.31-1.44l0.11-0.41C47.6,25.43,47.46,26.12,47.55,26.88z"/><path fill="#f2f2f0" d="M47.72,29.37c0.01,1.81,0.86,4.1,1.59,6.39c0.73-2.29,1.59-4.58,1.59-6.39l-1.07,1.61l-0.53-0.94
					l-0.53,0.94L47.72,29.37z"/><polygon fill="#6fc4ef" points="48.43 35.76 50.21 35.76 49.6 31.09 49.04 31.09"/><polygon fill="#6fc4ef" points="49.03 31.09 49.6 31.09 50.24 30.04 48.39 30.04"/><polygon fill="#e0e0de" points="49.31 30.04 49.84 30.98 50.9 29.37 50.69 29.03"/><polygon fill="#e0e0de" points="47.72 29.37 48.78 30.98 49.31 30.04 47.93 29.03"/><path fill="#aa87c6" d="M51.3,32.36l-0.25-1.01l0.52-0.27l0.09-1.14l-0.75-0.57c0,1.81-0.86,4.1-1.59,6.39
							C50.14,34.76,50.82,33.64,51.3,32.36z"/><path fill="#c2a0d8" d="M49.31,35.76h5.45l-0.62-3.8c-0.07-0.42-0.31-0.79-0.67-1.01c-0.5-0.32-1.01-0.68-1.82-1.01l-0.09,1.14
							l-0.52,0.27l0.25,1.01C50.82,33.64,50.14,34.76,49.31,35.76z"/><path fill="#aa87c6" d="M47.06,31.08l0.52,0.27l-0.25,1.01c0.48,1.28,1.16,2.4,1.99,3.4c-0.73-2.29-1.59-4.58-1.59-6.39
							l-0.75,0.57L47.06,31.08z"/><path fill="#c2a0d8" d="M49.31,35.76c-0.82-1-1.5-2.12-1.99-3.4l0.25-1.01l-0.52-0.27l-0.09-1.14
							c-0.81,0.34-1.32,0.69-1.82,1.01c-0.36,0.23-0.6,0.59-0.67,1.01l-0.61,3.8H49.31z"/></g><g><path fill="#5badaf" d="M28.82,46.14l2.77,0.94c0.31,0.1,0.54,0.36,0.61,0.67l1.12,4.69h-12.4l1.12-4.69
					c0.07-0.31,0.31-0.57,0.61-0.67l2.77-0.94H28.82z"/><rect width="2.48" height="2.26" x="25.89" y="44.59" fill="#efcf8f" transform="rotate(-180 27.131 45.723)"/><polygon fill="#f2f2f0" points="26.14 48.03 27.13 52.45 28.12 48.03 27.13 46.85"/><polygon fill="#c2a0d8" points="26.14 50.86 27.13 52.45 28.12 50.86 27.8 49.48 27.46 48.03 26.8 48.03 26.47 49.48"/><polygon fill="#c2a0d8" points="26.8 48.03 27.46 48.03 28.66 46.85 25.6 46.85"/><polygon fill="#e0e0de" points="27.13 46.85 27.13 46.85 28.12 48.03 28.63 45.74 28.37 45.4"/><polygon fill="#e0e0de" points="25.63 45.74 26.14 48.03 27.13 46.85 27.13 46.85 25.89 45.4"/><polygon fill="#50a0a0" points="25.32 48.11 24.65 48.44 26.14 50.86 27.13 52.45 26.47 49.48 26.14 48.03 25.63 45.74 24.09 47.12"/><polygon fill="#50a0a0" points="27.13 52.45 28.12 50.86 29.61 48.44 28.94 48.12 30.17 47.12 28.63 45.74 28.12 48.03 27.8 49.48"/><g><path fill="#ffe09c" d="M25.28,43.99c0.31,1,1,1.77,1.83,1.77c0.83,0,1.55-0.78,1.86-1.79c0.41-0.29,0.5-1.34,0.16-1.33
						c-0.08-1.46-0.95-2.62-2.02-2.62c-1.07,0-1.85,1.16-1.93,2.62C24.79,42.49,24.83,43.72,25.28,43.99z"/><path fill="#3a556d" d="M25.45,43.39h-0.12c-0.2-0.73-0.33-1.57-0.26-2.25c0.17-1.06,0.93-1.58,1.91-1.49
					c0.62,0.06,1.05,0.25,1.25,0.61c0.5-0.31,0.85-0.14,1,0.73c0.11,0.82,0,1.67-0.17,2.42l-0.14-0.01
					c0.27-1.81-1.97-2.71-3.15-1.37l0.1-0.39C25.5,42.01,25.37,42.66,25.45,43.39z"/></g></g></svg>