<svg xmlns="http://www.w3.org/2000/svg" xmlns:xlink="http://www.w3.org/1999/xlink" width="48" height="48" viewBox="0 0 48 48"><defs><linearGradient id="a"><stop offset="0" stop-color="#24f3d2"/><stop offset=".394" stop-color="#0674f0"/><stop offset=".507" stop-color="#6961b5"/><stop offset=".813" stop-color="#f34660"/><stop offset="1" stop-color="#ee078d"/></linearGradient><linearGradient id="b" x1="868.253" x2="937.656" y1="521.354" y2="588.736" gradientTransform="translate(-1334.968 218.374) scale(1.53785)" gradientUnits="userSpaceOnUse" xlink:href="#a"/></defs><g fill="#fff" transform="translate(8 -1011.394)"><rect width="48" height="48" x="-8" y="1011.394" fill="url(#b)" rx="10.144" ry="10.144"/><path d="m 23.583933,1022.1677 c -0.142,-0.091 -0.2848,-0.1646 -0.4385,-0.2423 -2.3,-1.1615 -5.0557,-0.3522 -6.4208,1.767 l 0.7646,0.4865 c 0.074,-0.1128 0.1592,-0.2178 0.2445,-0.3261 1.803,-2.1965 4.2921,-2.2075 5.8288,-1.0693 0.085,0.066 0.1519,0.1498 0.2304,0.22 -1.8073,-0.7324 -3.9466,-0.222 -5.2152,1.3857 -0.092,0.1168 -0.1821,0.2306 -0.2612,0.3524 l 6.752,4.4073 c 0.1117,-0.1695 0.2016,-0.3383 0.2923,-0.5178 1.1645,-2.3058 0.3539,-5.101 -1.7766,-6.4639 z m -7.4489,2.3352 -9.4539008,14.8009 0.8437,0.5368 9.4371008,-14.7747 -0.8271,-0.5629 z m 1.6707,1.0997 -9.4370008,14.7746 1.6609998,1.0569 9.420301,-14.7483 -1.6444,-1.083 z m 2.4882,1.6198 -9.420301,14.7482 1.7138,1.0903 9.403501,-14.7219 -1.6971,-1.1164 z m 2.5408,1.6533 -9.403501,14.7219 1.7138,1.0903 9.360401,-14.7122 -1.6708,-1.0998 z m -16.6636008,11.288 c -0.016,0.038 -0.035,0.081 -0.041,0.1223 -0.01,0.036 -0.025,0.059 -0.024,0.096 0,0.03 0.012,0.057 0.019,0.086 l 0.02,8.2354 c 0,0.3347 0.4086,0.5947 0.7119,0.453 l 7.4510998,-3.445 c 0.048,-0.011 0.076,-0.05 0.1199,-0.072 0.013,5e-4 0.031,-0.01 0.043,-0.01 0.046,-0.029 0.099,-0.057 0.1366,-0.098 l -6.6968998,-4.2609 -0.9152,3.8254 0.019,-4.3956 -0.8437,-0.5368 z m 0.8921,5.6418 2.0302,1.2918 -2.2696,1.2968 0.2394,-2.5886 z" color="#000" font-family="Sans" font-weight="400" overflow="visible" style="text-indent:0;text-align:start;line-height:normal;text-transform:none;block-progression:tb;marker:none;-inkscape-font-specification:Sans"/></g></svg>