<svg xmlns="http://www.w3.org/2000/svg" enable-background="new 0 0 512 512" viewBox="0 0 512 512"><path fill="#94c1ff" d="M278.883 30.952c0 12.637-10.246 22.883-22.883 22.883-12.637 0-22.882-10.246-22.882-22.883S243.363 8.069 256 8.069C268.637 8.069 278.883 18.315 278.883 30.952zM278.883 481.048c0 12.637-10.246 22.883-22.883 22.883-12.637 0-22.882-10.246-22.882-22.883 0-12.637 10.246-22.883 22.882-22.883C268.637 458.165 278.883 468.412 278.883 481.048zM142.232 60.482c7.428 10.223 5.161 24.535-5.062 31.963-10.223 7.428-24.535 5.16-31.963-5.063-7.428-10.223-5.161-24.535 5.062-31.963C120.493 47.991 134.805 50.259 142.232 60.482zM406.793 424.618c7.428 10.223 5.161 24.535-5.062 31.963-10.223 7.428-24.535 5.16-31.963-5.063s-5.161-24.535 5.062-31.963C385.053 412.127 399.365 414.394 406.793 424.618zM49.037 164.693c12.018 3.905 18.597 16.816 14.692 28.834-3.905 12.018-16.816 18.596-28.834 14.691-12.018-3.905-18.597-16.816-14.692-28.834C24.108 167.366 37.019 160.788 49.037 164.693zM477.105 303.781c12.018 3.905 18.597 16.815 14.692 28.834-3.905 12.018-16.816 18.596-28.834 14.691-12.018-3.905-18.597-16.815-14.692-28.834C452.176 306.454 465.087 299.876 477.105 303.781zM34.895 303.781c12.018-3.905 24.929 2.673 28.834 14.692 3.905 12.018-2.674 24.929-14.692 28.834-12.018 3.905-24.929-2.673-28.834-14.691C16.298 320.596 22.877 307.686 34.895 303.781zM462.962 164.693c12.018-3.905 24.929 2.673 28.834 14.692 3.905 12.018-2.674 24.929-14.692 28.834-12.018 3.905-24.929-2.673-28.834-14.691C444.365 181.509 450.944 168.598 462.962 164.693zM105.207 424.618c7.428-10.223 21.739-12.491 31.963-5.062 10.223 7.428 12.49 21.739 5.062 31.963-7.428 10.223-21.739 12.491-31.963 5.063C100.046 449.153 97.78 434.841 105.207 424.618zM369.768 60.482c7.428-10.223 21.739-12.491 31.963-5.062 10.223 7.428 12.49 21.739 5.062 31.963s-21.739 12.491-31.963 5.063C364.606 85.017 362.34 70.705 369.768 60.482z"/><path fill="#fff" d="M401.698,255.953c0,80.546-65.199,145.745-145.652,145.745
			c-80.453,0-145.745-65.199-145.745-145.745c0-80.453,65.292-145.652,145.745-145.652
			C336.499,110.302,401.698,175.5,401.698,255.953z"/><path fill="#d7e9ff" d="M280.997 187.066v18.777c0 13.805-11.191 24.997-24.997 24.997h0c-13.805 0-24.997-11.191-24.997-24.997v-18.777c0-13.805 11.191-24.997 24.997-24.997h0C269.805 162.069 280.997 173.261 280.997 187.066zM321.96 319.176c-43.973 20.84-87.946 20.84-131.92 0 0-36.453 29.546-65.998 65.922-65.998C292.414 253.178 321.96 282.723 321.96 319.176z"/><path fill="#116fff" d="M479.579,296.172c-13.544-4.4-27.878,1.191-35.316,12.585l-39.979-12.99
				c3.418-12.724,5.412-26.026,5.412-39.815c0-13.757-1.988-27.03-5.395-39.727l39.926-12.973
				c7.517,11.534,21.861,16.959,35.348,12.574c16.199-5.265,25.111-22.645,19.83-38.915c-5.264-16.191-22.724-25.091-38.915-19.827
				c-13.547,4.404-21.855,17.35-21.172,30.942l-39.953,12.982c-9.763-25.373-25.961-47.551-46.738-64.398l24.636-33.908
				c13.465,5.178,27.966,0.439,36.002-10.619c9.991-13.758,7.025-33.059-6.834-43.137c-13.813-10.025-33.091-6.975-43.133,6.834
				c-7.917,10.902-8.195,26.061,1.051,37.479l-24.68,33.968c-21.995-14.338-47.865-23.088-75.672-24.522V60.648
				c13.137-3.549,22.884-15.452,22.884-29.695c0-17.027-13.856-30.882-30.882-30.882s-30.882,13.856-30.882,30.882
				c0,14.244,9.747,26.146,22.884,29.695v42.063c-27.803,1.449-53.669,10.201-75.661,24.536l-24.692-33.985
				c9.242-11.41,8.975-26.57,1.052-37.48c-10.019-13.778-29.294-16.891-43.133-6.834c-13.778,10.019-16.883,29.298-6.834,43.137
				c8.087,11.128,22.624,15.764,36,10.62l24.649,33.926c-20.778,16.844-36.977,39.015-46.742,64.378l-39.96-12.984
				c0.68-13.59-7.626-26.535-21.172-30.938c-16.183-5.264-33.651,3.636-38.915,19.827c-5.279,16.267,3.628,33.649,19.83,38.915
				c13.449,4.372,27.812-1.007,35.35-12.577l39.928,12.973c-3.41,12.698-5.399,25.971-5.399,39.729
				c0,13.79,1.995,27.093,5.416,39.817l-39.98,12.991c-7.436-11.397-21.767-16.989-35.319-12.588
				c-16.195,5.264-25.087,22.72-19.827,38.915c5.255,16.166,22.677,25.085,38.915,19.827c13.546-4.403,21.853-17.347,21.172-30.938
				l39.98-12.991c9.769,25.36,25.964,47.527,46.732,64.37l-24.688,33.98c-13.683-5.251-28.024-0.355-35.971,10.579
				c-9.991,13.758-7.025,33.059,6.834,43.137c13.892,10.089,33.156,6.886,43.133-6.834c7.903-10.877,8.21-26.045-1.052-37.48
				l24.7-33.996c21.991,14.341,47.853,23.097,75.653,24.546v42.064c-13.137,3.549-22.884,15.452-22.884,29.695
				c0,17.027,13.856,30.882,30.882,30.882s30.882-13.856,30.882-30.882c0-14.244-9.747-26.146-22.884-29.695v-42.059
				c27.805-1.434,53.671-10.187,75.665-24.532l24.687,33.978c-9.255,11.428-8.96,26.594-1.051,37.479
				c9.977,13.72,29.241,16.923,43.133,6.834c13.778-10.019,16.883-29.298,6.834-43.137c-7.94-10.926-22.279-15.835-35.972-10.578
				l-24.676-33.963c20.767-16.846,36.961-39.02,46.728-64.39l39.973,12.988c-0.682,13.591,7.625,26.538,21.172,30.942
				c16.037,5.213,33.603-3.484,38.915-19.827C504.666,318.893,495.774,301.437,479.579,296.172z M465.434,172.3
				c7.826-2.546,16.222,1.753,18.757,9.556c2.537,7.797-1.714,16.214-9.56,18.757c-7.803,2.546-16.218-1.75-18.753-9.556
				C453.34,183.251,457.628,174.839,465.434,172.3z M376.24,65.186c4.82-6.642,14.117-8.141,20.787-3.296
				c6.641,4.819,8.142,14.122,3.296,20.791c-4.813,6.632-14.105,8.144-20.791,3.292C372.888,81.151,371.398,71.838,376.24,65.186z
				 M111.677,82.681c-4.842-6.664-3.35-15.968,3.296-20.791c6.667-4.843,15.965-3.349,20.787,3.296
				c4.639,6.374,3.638,15.535-3.18,20.548C126.463,90.232,117.136,90.204,111.677,82.681z M37.369,200.613
				c-7.83-2.537-12.102-10.945-9.56-18.757c2.554-7.858,11.008-12.079,18.757-9.556c9.127,2.968,11.516,11.37,9.369,18.396
				C53.73,197.908,46.748,203.669,37.369,200.613z M46.566,339.7c-7.806,2.542-16.214-1.75-18.757-9.556
				c-2.538-7.806,1.75-16.218,9.556-18.757c9.249-3.014,16.167,2.564,18.465,9.644C58.128,328.114,55.804,336.7,46.566,339.7z
				 M135.76,446.814c-4.811,6.629-14.103,8.153-20.787,3.296c-6.641-4.819-8.142-14.122-3.296-20.791
				c5.67-7.812,14.513-7.317,20.528-2.929C138.219,430.778,141.405,439.058,135.76,446.814z M400.323,429.319
				c4.842,6.664,3.35,15.968-3.296,20.791c-6.714,4.872-15.993,3.31-20.787-3.296c-4.833-6.64-3.367-15.955,3.292-20.787
				C386.183,421.196,395.491,422.66,400.323,429.319z M241.113,30.953c0-8.209,6.678-14.887,14.887-14.887
				s14.887,6.678,14.887,14.887c0,9.658-7.443,14.557-14.886,14.592C248.557,45.58,241.113,40.751,241.113,30.953z M270.886,481.047
				c0,8.209-6.678,14.887-14.887,14.887s-14.887-6.678-14.887-14.887c0-8.205,6.678-14.883,14.887-14.883
				S270.886,472.842,270.886,481.047z M256.047,393.7c-75.956,0-137.747-61.792-137.747-137.747
				c0-75.901,61.792-137.653,137.747-137.653c75.901,0,137.653,61.752,137.653,137.653C393.7,331.909,331.948,393.7,256.047,393.7z
				 M484.191,330.144c-2.538,7.803-10.934,12.094-18.757,9.556c-7.806-2.534-12.094-10.95-9.556-18.757
				c2.554-7.858,11.008-12.079,18.757-9.556C482.441,313.925,486.729,322.337,484.191,330.144z"/><path fill="#116fff" d="M256 238.837c18.194 0 32.995-14.801 32.995-32.995v-18.776c0-18.194-14.801-32.995-32.995-32.995s-32.995 14.801-32.995 32.995v18.776C223.005 224.036 237.806 238.837 256 238.837zM239.001 187.066c0-9.372 7.627-16.999 16.999-16.999s16.999 7.627 16.999 16.999v18.776c0 9.372-7.627 16.999-16.999 16.999s-16.999-7.627-16.999-16.999V187.066zM255.961 245.179c-40.758 0-73.917 33.194-73.917 73.999 0 3.089 1.781 5.905 4.573 7.228 45.589 21.6 92.263 22.033 138.766 0 2.792-1.324 4.573-4.139 4.573-7.228C329.956 278.373 296.762 245.179 255.961 245.179zM198.258 314.136c2.558-29.632 27.461-52.962 57.703-52.962 30.285 0 55.219 23.329 57.781 52.962C274.94 331.163 237.06 331.163 198.258 314.136z"/></svg>